<?xml version="1.0" encoding="utf-8"?>
<!-- Generator: Adobe Illustrator 18.0.0, SVG Export Plug-In . SVG Version: 6.00 Build 0)  -->
<!DOCTYPE svg PUBLIC "-//W3C//DTD SVG 1.1//EN" "http://www.w3.org/Graphics/SVG/1.1/DTD/svg11.dtd">
<svg version="1.1" id="Layer_1" xmlns="http://www.w3.org/2000/svg" xmlns:xlink="http://www.w3.org/1999/xlink" x="0px" y="0px"
	 viewBox="0 0 232.1 117.5" enable-background="new 0 0 232.1 117.5" xml:space="preserve">
<path fill="#AE1A25" d="M38.1,116.1c12,0,22.6-5.7,29.5-14.6c2,1,4.3,1.5,6.7,1.5c8.8,0,15.9-7.2,15.9-16.1
	c0-8.7-6.7-15.8-15.2-16.1c0,0,0,0,0,0H1.2c-0.4,2.3-0.7,4.7-0.7,7.2C0.6,99,17.4,116.1,38.1,116.1L38.1,116.1z M75.6,77.9
	C75.6,77.8,75.6,77.8,75.6,77.9c4.3,0.6,7.6,4.4,7.6,9c0,5-4,9.1-9,9.1c-1,0-2-0.2-2.9-0.5C74.1,90.2,75.6,84.2,75.6,77.9L75.6,77.9
	z M75.6,77.9"/>
<path fill="#AE1A25" d="M99.4,63.4c3.8-0.3,7.7-0.4,11.6-0.4c4,0,7.4,1,10.3,2.9c2.9,1.9,4.3,4.8,4.3,8.5c0,2.8-0.8,5.4-2.3,7.7
	c-1.5,2.4-3.4,4.2-5.5,5.4c3.5,1.1,6.4,2.9,8.7,5.5c2.3,2.6,3.5,5.6,3.5,8.8c0,4.6-1.4,8.1-4.3,10.4c-2.9,2.4-6.9,3.6-11.9,3.6
	c-5,0-9.8-0.2-14.4-0.6V63.4z M122.2,74.2c0-2.7-1.1-4.7-3.3-6.2c-2.2-1.5-4.7-2.2-7.4-2.2c-2.8,0-5.6,0.1-8.5,0.3v19.9
	c0.6,0,1.8,0,3.6,0c1.8,0,4.3,0.1,7.7,0.4c2.2-1.2,4.1-2.8,5.6-5C121.4,79.3,122.2,76.9,122.2,74.2z M123,109.8
	c2.3-2,3.4-4.5,3.4-7.6c0-3.1-1.1-5.7-3.3-8c-2.2-2.2-5.2-3.8-9.1-4.6c-1.8-0.4-3.9-0.6-6.2-0.6c-2.4,0-4,0-4.9,0v23.3
	c2.1,0.2,5.9,0.4,11.3,0.4C117.8,112.7,120.7,111.7,123,109.8z"/>
<path fill="#AE1A25" d="M138,116.1V63.4c4.6-0.3,8.5-0.5,11.6-0.5c5,0,9.1,1.3,12.3,3.8c3.2,2.6,4.8,6.2,4.8,10.8
	c0,3.2-0.9,6.1-2.8,8.8c-1.8,2.7-3.9,4.9-6.2,6.5c1.8,2.5,4,5.4,6.7,8.9c2.7,3.4,4.4,5.6,5.1,6.5c3,3.2,6.3,5,10.1,5.4l-0.1,2.3
	c-3,0-5.4-0.5-7.2-1.4s-3.6-2.2-5.3-3.9c-1.7-1.8-5.9-7.2-12.5-16.4c-4.8,0-9.1-0.1-13-0.4v22.1H138z M152.4,91.5
	c2.1,0,4.4-1.4,6.9-4.2c2.4-2.8,3.7-6.1,3.7-9.8s-1.3-6.5-3.8-8.5c-2.5-1.9-5.8-2.9-10-2.9c-2.2,0-4.7,0.1-7.7,0.3v24.8
	C145.4,91.4,149.1,91.5,152.4,91.5z"/>
<path fill="#AE1A25" d="M180.8,116.1v-53h3.5v53H180.8z"/>
<path fill="#AE1A25" d="M197.8,63.1v53h-3.5v-53H197.8z M225.8,63.1l-22.3,25.4c3,3.6,6.4,7.5,10.3,11.9c3.9,4.4,6.4,7.1,7.5,8.1
	c1.1,1,2,1.8,2.7,2.3s1.7,1.1,3,1.7c1.4,0.6,2.8,1,4.4,1.2l-0.1,2.3c-2.9,0-5.3-0.5-7.2-1.4c-1.9-0.9-3.6-2-5-3.4
	c-1.4-1.4-4.5-4.8-9.2-10.2s-8.3-9.6-10.7-12.5l22.5-25.5H225.8z"/>
<g>
	<path fill="#FFFFFF" d="M75.9,57.9h-0.8c-5.1,0-9.8-1.3-14.2-4c-4.4-2.7-7.9-6.2-10.4-10.6c-2.5-4.4-3.8-9.1-3.8-14.1
		c0-7.8,2.8-14.6,8.5-20.2c5.7-5.6,12.4-8.5,20.3-8.5c5.3,0,10.3,1.4,15,4.1v2.7c-4.6-3.2-9.6-4.7-15-4.7c-7.2,0-13.5,2.6-18.6,7.8
		c-5.2,5.2-7.8,11.4-7.8,18.7c0,7.3,2.6,13.5,7.8,18.7c5.2,5.2,11.4,7.8,18.6,7.8c5.4,0,10.4-1.6,15-4.7v2.7
		C86,56.5,81.2,57.9,75.9,57.9z"/>
	<path fill="#FFFFFF" d="M130.7,23.8v33.3h-2.4v-8.3c-1.4,2.8-3.5,5-6.2,6.7c-2.8,1.6-5.7,2.4-8.9,2.4c-4.8,0-9-1.7-12.4-5.1
		c-3.5-3.4-5.2-7.5-5.2-12.3s1.7-8.9,5.2-12.3c3.4-3.4,7.6-5.1,12.4-5.1c3.2,0,6.2,0.8,9.1,2.5c2.9,1.7,4.9,3.9,6,6.7v-8.4H130.7z
		 M98.1,40.5c0,4.1,1.5,7.7,4.5,10.8c3,3,6.6,4.5,10.8,4.5c4.2,0,7.7-1.5,10.7-4.5c3-3,4.4-6.6,4.4-10.8c0-4.2-1.5-7.8-4.5-10.8
		c-3-3.1-6.5-4.6-10.7-4.6c-4.1,0-7.7,1.5-10.8,4.6C99.6,32.8,98.1,36.4,98.1,40.5z"/>
	<path fill="#FFFFFF" d="M150.4,10.4v2.1c-2.9,0-5.3,1-7.3,3c-2,2-3,4.5-3,7.5v19.4h10.4v2.1h-10.4v12.7h-2.4V22.9
		c0-3.6,1.2-6.6,3.7-9C143.9,11.5,146.9,10.4,150.4,10.4z"/>
	<path fill="#FFFFFF" d="M171.9,58h-0.7c-4.7,0-8.8-1.8-12.2-5.3c-3.5-3.5-5.2-7.6-5.2-12.3c0-4.7,1.7-8.7,5.2-12.2
		c3.4-3.4,7.7-5.1,12.8-5.1c5.1,0,9.4,2,13.1,6.1l-23.2,22.9c3.2,2.6,6.3,3.8,9.2,3.8c3,0,5.6-0.7,7.9-2c2.3-1.4,4.3-3.2,5.8-5.4
		v3.8C181.1,56.1,176.9,58,171.9,58z M171.1,25.1c-3.9,0-7.4,1.5-10.4,4.5c-3,3-4.5,6.5-4.5,10.5c0,3.9,1.3,7.4,3.9,10.4l21.5-21.4
		C178.5,26.5,175.1,25.1,171.1,25.1z M172.8,9.5h3L165.6,18h-3.1L172.8,9.5z"/>
</g>
<g>
	<path fill="none" stroke="#FFFFFF" stroke-width="1.5" stroke-miterlimit="10" d="M5,1.5C5.3,0.9,6.1,1,6.1,1.5
		c-0.4,3.8,0.9,9.4,10.6,12.3c16.5,5,22.9,13.6,21,31.7c-0.1,0.6-1,0.8-1.1,0.3C35.4,40,32.1,29,23.8,25.8C12.2,21.3-3.1,18,5,1.5z"
		/>
	<path fill="none" stroke="#FFFFFF" stroke-width="1.5" stroke-miterlimit="10" d="M20.7,34.6c0.2-0.3,0.8-0.3,0.7,0.1
		c-0.7,2.3-0.4,5.7,5.4,8C36.8,46.5,40,52.1,37,62.9c-0.1,0.4-0.7,0.4-0.7,0.1c-0.1-3.6-1.1-10.4-6.1-12.8
		C23.3,46.9,14,44.1,20.7,34.6z"/>
</g>
</svg>
